<svg width="31" height="31" viewBox="0 0 31 31" fill="none" xmlns="http://www.w3.org/2000/svg">
<circle cx="15.5" cy="15.5" r="15.5" fill="white"/>
<path fill-rule="evenodd" clip-rule="evenodd" d="M8 16C8 15.8674 8.05268 15.7402 8.14645 15.6465C8.24021 15.5527 8.36739 15.5 8.5 15.5H20.293L17.146 12.354C17.0521 12.2601 16.9994 12.1328 16.9994 12C16.9994 11.8672 17.0521 11.7399 17.146 11.646C17.2399 11.5521 17.3672 11.4994 17.5 11.4994C17.6328 11.4994 17.7601 11.5521 17.854 11.646L21.854 15.646C21.9006 15.6925 21.9375 15.7476 21.9627 15.8084C21.9879 15.8691 22.0009 15.9342 22.0009 16C22.0009 16.0658 21.9879 16.1309 21.9627 16.1916C21.9375 16.2524 21.9006 16.3076 21.854 16.354L17.854 20.354C17.7601 20.4479 17.6328 20.5006 17.5 20.5006C17.3672 20.5006 17.2399 20.4479 17.146 20.354C17.0521 20.2601 16.9994 20.1328 16.9994 20C16.9994 19.8672 17.0521 19.7399 17.146 19.646L20.293 16.5H8.5C8.36739 16.5 8.24021 16.4473 8.14645 16.3536C8.05268 16.2598 8 16.1326 8 16Z" fill="#037E8C"/>
</svg>
