<svg width="22" height="22" viewBox="0 0 22 22" fill="none" xmlns="http://www.w3.org/2000/svg">
<g clip-path="url(#clip0_23_2891)">
<path d="M10.3964 5.31006L0.24889 15.4857C-0.0833858 15.8191 -0.0828272 16.3589 0.250609 16.6917C0.584002 17.0243 1.12407 17.0234 1.45661 16.69L11.0001 7.12003L20.5436 16.6903C20.8762 17.0237 21.4159 17.0246 21.7494 16.6921C21.9165 16.5252 22.0001 16.3066 22.0001 16.088C22.0001 15.87 21.9171 15.6523 21.7511 15.4858L11.6039 5.31006C11.4441 5.14949 11.2267 5.05938 11.0001 5.05938C10.7736 5.05938 10.5564 5.14975 10.3964 5.31006Z" fill="#037E8C"/>
</g>
<defs>
<clipPath id="clip0_23_2891">
<rect width="22" height="22" fill="white" transform="matrix(0 -1 1 0 0 22)"/>
</clipPath>
</defs>
</svg>
