<svg width="29" height="29" viewBox="0 0 29 29" fill="none" xmlns="http://www.w3.org/2000/svg">
<path d="M14.5 0.0625C6.52715 0.0625 0.0625 6.52715 0.0625 14.5C0.0625 22.4729 6.52715 28.9375 14.5 28.9375C22.4729 28.9375 28.9375 22.4729 28.9375 14.5C28.9375 6.52715 22.4729 0.0625 14.5 0.0625ZM15.5312 21.4609C15.5312 21.6027 15.4152 21.7188 15.2734 21.7188H13.7266C13.5848 21.7188 13.4688 21.6027 13.4688 21.4609V12.6953C13.4688 12.5535 13.5848 12.4375 13.7266 12.4375H15.2734C15.4152 12.4375 15.5312 12.5535 15.5312 12.6953V21.4609ZM14.5 10.375C14.0952 10.3667 13.7098 10.2001 13.4264 9.91094C13.1431 9.62174 12.9844 9.233 12.9844 8.82812C12.9844 8.42325 13.1431 8.03451 13.4264 7.74531C13.7098 7.45612 14.0952 7.28951 14.5 7.28125C14.9048 7.28951 15.2902 7.45612 15.5736 7.74531C15.8569 8.03451 16.0156 8.42325 16.0156 8.82812C16.0156 9.233 15.8569 9.62174 15.5736 9.91094C15.2902 10.2001 14.9048 10.3667 14.5 10.375Z" fill="white"/>
</svg>
