<svg width="13" height="18" viewBox="0 0 13 18" fill="none" xmlns="http://www.w3.org/2000/svg">
<path d="M0 17.5H12.5V14.375C12.4987 13.2151 12.0373 12.1031 11.2171 11.2829C10.3969 10.4627 9.28492 10.0013 8.125 10H4.375C3.21508 10.0013 2.10305 10.4627 1.28287 11.2829C0.462685 12.1031 0.00132335 13.2151 0 14.375V17.5Z" fill="#037E8C"/>
<path d="M1.875 4.375C1.875 5.24029 2.13159 6.08615 2.61232 6.80562C3.09305 7.52508 3.77633 8.08584 4.57576 8.41697C5.37519 8.74811 6.25485 8.83475 7.10352 8.66594C7.95219 8.49713 8.73174 8.08045 9.34359 7.46859C9.95545 6.85674 10.3721 6.07719 10.5409 5.22852C10.7097 4.37985 10.6231 3.50019 10.292 2.70076C9.96084 1.90133 9.40008 1.21805 8.68062 0.73732C7.96115 0.256589 7.11529 0 6.25 0C5.08968 0 3.97688 0.460936 3.15641 1.28141C2.33594 2.10188 1.875 3.21468 1.875 4.375V4.375Z" fill="#037E8C"/>
</svg>
