<svg width="53" height="45" viewBox="0 0 53 45" fill="none" xmlns="http://www.w3.org/2000/svg">
<circle cx="30.5" cy="22.5" r="22.5" fill="#037E8C"/>
<path d="M0.399951 21.4C-4.85778e-05 26.2 1.39995 30.2 4.39995 33.8C7.39995 37.4 11.4 39 16.2 39H36.2C37.2 39 38.2 38.6 39 37.8C39.7999 37 40.2 36 40.2 35V33.4C40.2 32.2 40 30.8 39.7999 29H23.4C21.4 29 19.7999 28.2 18.4 26.8C17 25.4 16.2 23.6 16.2 21.8C16.2 18.6 17.6 16.4 20.6 15.2L30.2 11C26.8 8.60003 22.8 7.20003 18.2 7.00003C13.8 6.60003 9.79995 8.00003 6.19995 10.8C2.59995 13.6 0.799951 17 0.399951 21.4ZM20.2 21.8C20.2 22.6 20.6 23.4 21.2 24C21.8 24.6 22.6 25 23.4 25H39C37.7999 20.6 36 17 33.4 14.2L22.2 18.8C20.8 19.2 20.2 20.2 20.2 21.8Z" fill="#121214"/>
</svg>
