<svg width="19" height="20" viewBox="0 0 19 20" fill="none" xmlns="http://www.w3.org/2000/svg">
<path d="M2.978 2.45825C2.58681 2.45786 2.19939 2.53462 1.8379 2.68414C1.47642 2.83366 1.14797 3.053 0.871357 3.32961C0.594746 3.60622 0.375403 3.93467 0.225884 4.29616C0.0763656 4.65764 -0.00039316 5.04507 1.51427e-06 5.43625C1.51427e-06 7.66925 2.978 10.9663 2.978 10.9663C2.978 10.9663 5.956 7.66925 5.956 5.43625C5.9564 5.04507 5.87964 4.65764 5.73012 4.29616C5.5806 3.93467 5.36126 3.60622 5.08465 3.32961C4.80803 3.053 4.47958 2.83366 4.1181 2.68414C3.75661 2.53462 3.36919 2.45786 2.978 2.45825V2.45825ZM2.978 6.49925C2.76776 6.49925 2.56224 6.43691 2.38743 6.32011C2.21262 6.2033 2.07637 6.03728 1.99592 5.84305C1.91546 5.64881 1.89441 5.43507 1.93543 5.22887C1.97644 5.02267 2.07768 4.83326 2.22635 4.6846C2.37501 4.53594 2.56442 4.43469 2.77062 4.39368C2.97682 4.35266 3.19056 4.37371 3.38479 4.45417C3.57903 4.53463 3.74505 4.67087 3.86185 4.84568C3.97866 5.02049 4.041 5.22601 4.041 5.43625C4.04074 5.7181 3.92866 5.98832 3.72936 6.18762C3.53007 6.38691 3.25984 6.49899 2.978 6.49925V6.49925Z" fill="#121214"/>
<path d="M17.986 9.25235V4.95235C17.979 4.5008 17.9104 4.05233 17.782 3.61935C17.4539 2.47467 16.7277 1.48483 15.7343 0.828208C14.7409 0.171589 13.5457 -0.108626 12.364 0.0380628C11.1823 0.184751 10.0918 0.748695 9.28913 1.62827C8.48644 2.50783 8.02431 3.64518 7.98602 4.83535V5.08335L7.97602 5.95335V15.9053H7.97202V15.9463C7.97202 16.4768 7.7613 16.9855 7.38623 17.3606C7.01116 17.7356 6.50245 17.9463 5.97202 17.9463C5.44158 17.9463 4.93287 17.7356 4.5578 17.3606C4.18273 16.9855 3.97202 16.4768 3.97202 15.9463C3.97202 15.9343 3.97502 15.9223 3.97602 15.9093H3.97202V13.9663H1.97202V15.9663H1.97402C1.97468 17.0267 2.39653 18.0433 3.14677 18.7926C3.89701 19.5419 4.91418 19.9625 5.97451 19.9618C7.03485 19.9612 8.05149 19.5393 8.8008 18.7891C9.5501 18.0389 9.97068 17.0217 9.97002 15.9613H9.97202V14.9793H9.97702V6.95335L9.98701 5.08335V4.83635C10.0155 4.04911 10.3524 3.30464 10.925 2.76362C11.4976 2.22261 12.26 1.92843 13.0476 1.94457C13.8351 1.96072 14.5848 2.2859 15.1347 2.84992C15.6847 3.41395 15.9908 4.1716 15.987 4.95935V9.23435C15.6041 9.45103 15.3033 9.788 15.1314 10.193C14.9594 10.598 14.9259 11.0484 15.0361 11.4744C15.1462 11.9004 15.3938 12.2782 15.7404 12.5491C16.0871 12.8201 16.5135 12.9691 16.9534 12.9731C17.3934 12.977 17.8224 12.8357 18.1739 12.571C18.5254 12.3064 18.7797 11.9331 18.8975 11.5092C19.0153 11.0852 18.9899 10.6343 18.8253 10.2263C18.6606 9.81821 18.366 9.47588 17.987 9.25235H17.986Z" fill="#121214"/>
</svg>
