<svg width="17" height="17" viewBox="0 0 17 17" fill="none" xmlns="http://www.w3.org/2000/svg">
<g clip-path="url(#clip0_20_63)">
<path d="M7.18721 9.74667C8.17297 10.7467 9.36571 11.5187 10.6817 12.0086L12.4619 10.5919C12.5147 10.5556 12.5773 10.5361 12.6414 10.5361C12.7055 10.5361 12.768 10.5556 12.8208 10.5919L16.1264 12.7217C16.2519 12.7971 16.3581 12.9007 16.4367 13.0243C16.5153 13.1478 16.564 13.288 16.5791 13.4336C16.5943 13.5792 16.5753 13.7264 16.5238 13.8635C16.4722 14.0005 16.3895 14.1237 16.2822 14.2233L14.7333 15.7533C14.5115 15.9725 14.2389 16.1334 13.9398 16.2215C13.6407 16.3097 13.3244 16.3224 13.0192 16.2586C9.97437 15.6298 7.16791 14.157 4.92054 12.0086C2.72305 9.83887 1.20239 7.07807 0.543043 4.06111C0.477907 3.76061 0.491502 3.44837 0.582509 3.15467C0.673517 2.86096 0.83885 2.59575 1.06249 2.38472L2.66804 0.835832C2.7674 0.733732 2.88856 0.655432 3.02247 0.606794C3.15637 0.558156 3.29954 0.540442 3.44126 0.554978C3.58298 0.569513 3.71958 0.615921 3.84082 0.690728C3.96207 0.765534 4.06482 0.8668 4.14138 0.986943L6.34193 4.25C6.37989 4.30124 6.40038 4.36332 6.40038 4.42708C6.40038 4.49085 6.37989 4.55293 6.34193 4.60417L4.89221 6.34667C5.3954 7.63628 6.17936 8.7977 7.18721 9.74667Z" fill="white"/>
</g>
<defs>
<clipPath id="clip0_20_63">
<rect width="17" height="17" fill="white"/>
</clipPath>
</defs>
</svg>
