<svg width="45" height="45" viewBox="0 0 45 45" fill="none" xmlns="http://www.w3.org/2000/svg">
<circle cx="22.5" cy="22.5" r="22.5" fill="#037E8C"/>
<g clip-path="url(#clip0_14902_104)">
<path d="M27.5304 34C26.788 34 26.0519 33.8687 25.332 33.6072C22.1607 32.4552 19.2171 30.5789 16.8193 28.1811C14.4215 25.7833 12.5452 22.8397 11.3932 19.6684C11.023 18.6493 10.9138 17.5972 11.0686 16.5414C11.2136 15.5525 11.5967 14.5924 12.1765 13.765C12.7588 12.9339 13.5351 12.2427 14.4214 11.766C15.3666 11.2578 16.3983 11 17.4879 11C17.8268 11 18.1196 11.2368 18.1907 11.5681L19.3188 16.8327C19.3699 17.0711 19.2966 17.3191 19.1242 17.4915L17.1966 19.4191C19.015 23.0346 21.9657 25.9853 25.5812 27.8037L27.5088 25.8761C27.6812 25.7037 27.9293 25.6305 28.1676 25.6815L33.4322 26.8097C33.7636 26.8807 34.0003 27.1735 34.0003 27.5124C34.0003 28.602 33.7426 29.6337 33.2343 30.5789C32.7576 31.4653 32.0664 32.2416 31.2353 32.8239C30.4079 33.4036 29.4479 33.7867 28.4588 33.9318C28.1489 33.9773 27.8391 34 27.5304 34V34ZM16.9136 12.4689C15.4764 12.6275 14.2008 13.3809 13.3537 14.5899C12.4011 15.9494 12.179 17.6215 12.7442 19.1776C14.959 25.2745 19.7259 30.0414 25.8228 32.2562C27.3788 32.8214 29.051 32.5993 30.4105 31.6467C31.6196 30.7996 32.3729 29.524 32.5315 28.0868L28.2488 27.1691L26.2357 29.1822C26.0214 29.3964 25.696 29.4533 25.4218 29.3245C21.1459 27.3157 17.6847 23.8545 15.6759 19.5786C15.5471 19.3044 15.604 18.9789 15.8182 18.7647L17.8314 16.7516L16.9136 12.4689Z" fill="white"/>
</g>
<defs>
<clipPath id="clip0_14902_104">
<rect width="23" height="23" fill="white" transform="translate(11 11)"/>
</clipPath>
</defs>
</svg>
