<svg width="95" height="95" viewBox="0 0 95 95" fill="none" xmlns="http://www.w3.org/2000/svg">
<path d="M47.5 5.9375C39.2797 5.9375 31.244 8.3751 24.4091 12.942C17.5742 17.509 12.247 24.0002 9.10127 31.5947C5.9555 39.1893 5.13242 47.5461 6.73612 55.6084C8.33982 63.6708 12.2983 71.0765 18.1109 76.8891C23.9235 82.7017 31.3292 86.6602 39.3916 88.2639C47.4539 89.8676 55.8107 89.0445 63.4053 85.8987C70.9998 82.753 77.491 77.4258 82.058 70.5909C86.6249 63.756 89.0625 55.7203 89.0625 47.5C89.0625 36.4769 84.6836 25.9054 76.8891 18.1109C69.0947 10.3164 58.5231 5.9375 47.5 5.9375ZM69.6083 50.157L33.9833 67.9695C33.5306 68.1958 33.0275 68.3025 32.5219 68.2796C32.0164 68.2567 31.525 68.1049 31.0946 67.8387C30.6642 67.5725 30.309 67.2006 30.0627 66.7585C29.8164 66.3164 29.6873 65.8186 29.6875 65.3125V29.6875C29.6878 29.1817 29.8173 28.6843 30.0638 28.2425C30.3103 27.8008 30.6655 27.4294 31.0959 27.1635C31.5262 26.8976 32.0174 26.7461 32.5227 26.7233C33.028 26.7006 33.5308 26.8073 33.9833 27.0334L69.6083 44.8459C70.1008 45.0928 70.5148 45.4717 70.8042 45.9404C71.0936 46.4092 71.2468 46.9492 71.2468 47.5C71.2468 48.0508 71.0936 48.5908 70.8042 49.0596C70.5148 49.5283 70.1008 49.9072 69.6083 50.1541V50.157Z" fill="white"/>
</svg>
