<svg width="13" height="18" viewBox="0 0 13 18" fill="none" xmlns="http://www.w3.org/2000/svg">
<path d="M8.10333 11.25C10.985 11.25 13 9.15968 13 6.15484C13 3.15 10.985 1.125 8.10333 1.125H2.57292C2.34857 1.125 2.16667 1.31389 2.16667 1.54688V8.81128H0.40625C0.181898 8.81128 0 9.00018 0 9.23316V10.8281C0 11.0611 0.181898 11.25 0.40625 11.25H2.16667V12.375H0.40625C0.181898 12.375 0 12.5639 0 12.7969V14.2031C0 14.4361 0.181898 14.625 0.40625 14.625H2.16667V16.4531C2.16667 16.6861 2.34857 16.875 2.57292 16.875H4.55542C4.77977 16.875 4.96167 16.6861 4.96167 16.4531V14.625H10.4271C10.6514 14.625 10.8333 14.4361 10.8333 14.2031V12.7969C10.8333 12.5639 10.6514 12.375 10.4271 12.375H4.96167V11.25H8.10333ZM4.96167 3.54192H7.62667C9.20833 3.54192 10.1617 4.56532 10.1617 6.15484C10.1617 7.76612 9.20833 8.81128 7.58333 8.81128H4.96167V3.54192Z" fill="#121214"/>
</svg>
