<svg width="15" height="14" viewBox="0 0 15 14" fill="none" xmlns="http://www.w3.org/2000/svg">
<path d="M14.0759 4.86204L9.86075 4.24944L7.97647 0.429425C7.92501 0.324835 7.84034 0.240167 7.73575 0.188702C7.47344 0.0592102 7.15469 0.16712 7.02354 0.429425L5.13927 4.24944L0.924129 4.86204C0.807918 4.87864 0.701668 4.93343 0.620321 5.01644C0.521976 5.11752 0.467783 5.25351 0.469651 5.39452C0.471519 5.53554 0.529294 5.67005 0.630282 5.76849L3.67999 8.74183L2.95948 12.9404C2.94258 13.038 2.95339 13.1385 2.99068 13.2303C3.02796 13.3222 3.09024 13.4017 3.17043 13.46C3.25063 13.5182 3.34554 13.5528 3.44441 13.5599C3.54328 13.5669 3.64214 13.5461 3.72979 13.4998L7.50001 11.5176L11.2702 13.4998C11.3732 13.5546 11.4927 13.5729 11.6072 13.553C11.8961 13.5032 12.0903 13.2292 12.0405 12.9404L11.32 8.74183L14.3697 5.76849C14.4527 5.68714 14.5075 5.58089 14.5241 5.46468C14.569 5.17415 14.3664 4.90521 14.0759 4.86204Z" fill="#037E8C"/>
</svg>
