<svg width="58" height="45" viewBox="0 0 58 45" fill="none" xmlns="http://www.w3.org/2000/svg">
<circle cx="35.5" cy="22.5" r="22.5" fill="#037E8C"/>
<path fill-rule="evenodd" clip-rule="evenodd" d="M18 17C18 23.177 14.5 28.264 10 28.927V38H26V29.046H21.273C20.5359 29.0463 19.8202 28.7978 19.2419 28.3406C18.6636 27.8835 18.2566 27.2445 18.0867 26.5272C17.9169 25.8099 17.9941 25.0563 18.306 24.3883C18.6178 23.7204 19.146 23.1773 19.805 22.847C19.514 21.8674 19.6 20.8144 20.0462 19.895C20.4923 18.9756 21.2664 18.2565 22.216 17.879C22.0505 17.1596 22.0493 16.4121 22.2126 15.6922C22.376 14.9723 22.6996 14.2985 23.1593 13.7209C23.6191 13.1434 24.2032 12.6769 24.8681 12.3563C25.5331 12.0358 26.2618 11.8693 27 11.8693C27.7382 11.8693 28.4669 12.0358 29.1319 12.3563C29.7968 12.6769 30.3809 13.1434 30.8407 13.7209C31.3004 14.2985 31.624 14.9723 31.7874 15.6922C31.9507 16.4121 31.9495 17.1596 31.784 17.879C32.7336 18.2565 33.5077 18.9756 33.9538 19.895C34.4 20.8144 34.486 21.8674 34.195 22.847C34.854 23.1773 35.3822 23.7204 35.694 24.3883C36.0059 25.0563 36.0831 25.8099 35.9133 26.5272C35.7434 27.2445 35.3364 27.8835 34.7581 28.3406C34.1798 28.7978 33.4641 29.0463 32.727 29.046H28V38H34.5C34.8978 38 35.2794 38.158 35.5607 38.4393C35.842 38.7206 36 39.1022 36 39.5C36 39.8978 35.842 40.2794 35.5607 40.5607C35.2794 40.842 34.8978 41 34.5 41H1.5C1.10218 41 0.720644 40.842 0.43934 40.5607C0.158035 40.2794 0 39.8978 0 39.5C0 39.1022 0.158035 38.7206 0.43934 38.4393C0.720644 38.158 1.10218 38 1.5 38H8V28.927C3.5 28.264 0 23.177 0 17C0 10.373 4.03 5 9 5C13.97 5 18 10.373 18 17Z" fill="#121214"/>
</svg>
