<svg width="41" height="41" viewBox="0 0 41 41" fill="none" xmlns="http://www.w3.org/2000/svg">
<circle cx="20.5" cy="20.5" r="20.5" fill="#121214"/>
<path d="M27.9479 22.8284C27.5797 22.6392 25.7453 21.7406 25.4041 21.619C25.0629 21.4906 24.8129 21.4298 24.5662 21.8082C24.3163 22.1832 23.6068 23.0176 23.3838 23.271C23.1676 23.521 22.948 23.5514 22.5798 23.3656C20.3907 22.271 18.9549 21.4129 17.5124 18.9366C17.1306 18.2778 17.8941 18.3251 18.6069 16.9029C18.7286 16.6529 18.6677 16.4401 18.5732 16.2509C18.4786 16.0617 17.7353 14.2306 17.4245 13.484C17.1239 12.7577 16.8131 12.8591 16.5867 12.8455C16.3705 12.832 16.1239 12.832 15.8739 12.832C15.6239 12.832 15.2219 12.9266 14.8807 13.2949C14.5395 13.6698 13.5767 14.5719 13.5767 16.4029C13.5767 18.2339 14.9111 20.0075 15.0935 20.2575C15.2827 20.5075 17.7184 24.2642 21.4582 25.8824C23.823 26.9026 24.7487 26.9905 25.9311 26.8148C26.6507 26.7067 28.1337 25.9162 28.4411 25.0412C28.7486 24.1696 28.7486 23.423 28.6574 23.2676C28.5661 23.1021 28.3162 23.0075 27.9479 22.8284Z" fill="white"/>
<path d="M35.0998 13.9947C34.3363 12.1805 33.2417 10.5522 31.8465 9.15356C30.4512 7.75832 28.8229 6.66037 27.0054 5.90026C25.1473 5.11987 23.1744 4.72461 21.1406 4.72461H21.0731C19.0258 4.73474 17.0428 5.14014 15.1779 5.93742C13.3773 6.70767 11.7625 7.80224 10.3808 9.19747C8.99904 10.5927 7.91461 12.2143 7.16462 14.0217C6.38762 15.8933 5.99573 17.8831 6.00587 19.9303C6.016 22.2749 6.5768 24.6025 7.62745 26.6835V31.8185C7.62745 32.6766 8.32338 33.3726 9.18147 33.3726H14.3199C16.4009 34.4232 18.7285 34.984 21.0731 34.9941H21.144C23.1676 34.9941 25.1304 34.6023 26.9783 33.8354C28.7857 33.082 30.4107 32.001 31.8025 30.6192C33.1978 29.2375 34.2957 27.6227 35.0626 25.8221C35.8599 23.9572 36.2653 21.9742 36.2754 19.9269C36.2855 17.8696 35.8869 15.873 35.0998 13.9947V13.9947ZM29.9951 28.7916C27.627 31.1361 24.4851 32.4266 21.1406 32.4266H21.0832C19.0461 32.4165 17.0225 31.9098 15.2354 30.9571L14.9516 30.8051H10.195V26.0484L10.0429 25.7646C9.09025 23.9775 8.58351 21.9539 8.57337 19.9168C8.55986 16.5486 9.84699 13.3866 12.2084 11.0049C14.5665 8.62316 17.7184 7.30563 21.0866 7.29211H21.144C22.8332 7.29211 24.4716 7.61981 26.0155 8.26844C27.5222 8.90018 28.8736 9.80894 30.0357 10.9711C31.1944 12.1298 32.1066 13.4845 32.7383 14.9913C33.3937 16.552 33.7214 18.2074 33.7147 19.9168C33.6944 23.2816 32.3735 26.4335 29.9951 28.7916V28.7916Z" fill="white"/>
</svg>
